<?xml version="1.0" encoding="UTF-8"?>
<svg xmlns="http://www.w3.org/2000/svg"
     version="1.2"
     baseProfile="tiny-ps"
     width="96"
     height="96"
     viewBox="0 0 512 512">
  <title>Hotel Yuvaan</title>
  <rect width="512" height="512" style="fill:#141615"/>
  <path style="fill:#FDFDFD" d="M0 0 C168.96 0 337.92 0 512 0 C512 168.96 512 337.92 512 512 C343.04 512 174.08 512 0 512 C0 343.04 0 174.08 0 0 Z M186 19 C184.77410156 19.433125 184.77410156 19.433125 183.5234375 19.875 C179.93409403 21.16555046 176.44394785 22.66038086 172.95703125 24.203125 C171.51728093 24.78937064 170.05110226 25.3117152 168.57421875 25.796875 C160.6161078 28.42270611 154.02784783 32.49331177 147 37 C144.68407296 38.36902091 142.34923437 39.68879942 140 41 C140 41.66 140 42.32 140 43 C139.16339844 43.22171875 138.32679688 43.4434375 137.46484375 43.671875 C133.25222955 45.28663129 130.1230225 47.52239953 126.5625 50.25 C125.86946777 50.77577637 125.17643555 51.30155273 124.46240234 51.84326172 C116.84011378 57.73407598 109.8928007 64.28435548 103 71 C102.04996094 71.91007812 101.09992188 72.82015625 100.12109375 73.7578125 C94.58060688 79.15450047 89.71400558 84.87590978 85 91 C84.319375 91.84949219 83.63875 92.69898437 82.9375 93.57421875 C76.37063159 101.39366328 76.37063159 101.39366328 74 111 C73.34 111 72.68 111 72 111 C66.44797689 116.73709055 63.9379448 124.40971621 62 132 C61.34 132 60.68 132 60 132 C48.60338109 156.55400578 41.03762468 183.51819209 40.76171875 210.71484375 C40.75201553 211.5199942 40.74231232 212.32514465 40.73231506 213.1546936 C40.70749641 215.74901385 40.69479788 218.34307302 40.6875 220.9375 C40.68488159 221.82517059 40.68226318 222.71284119 40.67956543 223.62741089 C40.67224951 246.83166982 43.6045249 269.24808725 52 291 C52.52929469 292.95918033 52.99746087 294.92667643 53.4609375 296.90234375 C54.42867959 300.66812275 55.72530585 304.32888085 57 308 C57.66 308 58.32 308 59 308 C59.2578125 308.83789062 59.515625 309.67578125 59.78125 310.5390625 C65.6017336 327.0677435 75.77425946 342.67640735 87 356 C87.63808594 356.82113281 88.27617188 357.64226562 88.93359375 358.48828125 C93.73250251 364.61165255 98.95948274 370.16931061 104.4375 375.6875 C105.14841797 376.40760254 105.85933594 377.12770508 106.59179688 377.86962891 C107.26146484 378.53526855 107.93113281 379.2009082 108.62109375 379.88671875 C109.2236499 380.48701904 109.82620605 381.08731934 110.44702148 381.70581055 C111.91914529 383.21339876 111.91914529 383.21339876 114 383 C114.24363281 383.58652344 114.48726563 384.17304688 114.73828125 384.77734375 C117.27238458 389.24144529 121.96564828 391.95272304 126 395 C126.58604004 395.44891602 127.17208008 395.89783203 127.77587891 396.36035156 C135.22902537 402.05878547 142.43410784 407.10196919 151 411 C153.75906567 412.35697624 156.50385405 413.74210488 159.25 415.125 C161.22843481 416.115045 163.20738927 417.10390162 165.18896484 418.08764648 C166.84498221 418.92190597 168.48224393 419.79313052 170.1171875 420.66796875 C173.08286481 422.03828848 175.65749458 422.67740768 178.875 423.1875 C179.84179688 423.34605469 180.80859375 423.50460937 181.8046875 423.66796875 C182.89136719 423.83232422 182.89136719 423.83232422 184 424 C184 424.66 184 425.32 184 426 C188.74431478 427.2535932 193.49085421 428.49827283 198.23950195 429.73535156 C199.8488393 430.15586257 201.45758433 430.57864821 203.06567383 431.00390625 C219.17016034 435.25962596 234.27582483 437.40526985 250.9375 437.375 C252.2373735 437.37667679 252.2373735 437.37667679 253.56350708 437.37838745 C279.64368425 438.61926557 279.64368425 438.61926557 303 432 C305.05795482 431.58117757 307.12171348 431.19080719 309.1875 430.8125 C315.7286483 429.45252495 321.4394132 427.31570457 327.5390625 424.546875 C330.96515476 423.01557417 334.419485 421.67916117 337.9375 420.375 C342.63015625 418.59894026 346.70119746 416.56274767 351 414 C353.97291944 412.60239167 356.97823932 411.28818823 360 410 C360 409.34 360 408.68 360 408 C360.69480469 407.7421875 361.38960938 407.484375 362.10546875 407.21875 C365.32984322 405.86111864 368.28166232 404.24670987 371.3125 402.5 C372.38113281 401.8915625 373.44976562 401.283125 374.55078125 400.65625 C375.76314453 399.83640625 375.76314453 399.83640625 377 399 C377 398.34 377 397.68 377 397 C377.68449219 396.773125 378.36898438 396.54625 379.07421875 396.3125 C382.74518186 394.66571281 385.65392227 392.46488786 388.8125 390 C389.7087207 389.32324219 389.7087207 389.32324219 390.62304688 388.6328125 C392.12347581 387.47362397 393.56724504 386.24186081 395 385 C395 384.34 395 383.68 395 383 C395.57234375 382.7525 396.1446875 382.505 396.734375 382.25 C399.35010611 380.80683801 401.14773456 379.11783778 403.25 377 C403.95640625 376.29875 404.6628125 375.5975 405.390625 374.875 C407.21710399 373.15889232 407.21710399 373.15889232 407 371 C407.58652344 370.7525 408.17304688 370.505 408.77734375 370.25 C411.32686375 368.81617504 412.71117065 367.25307196 414.5625 365 C416.67356316 362.44227537 418.19970251 360.866865 421 359 C422.34027821 356.78580997 423.46545238 354.50650298 424.62109375 352.19140625 C426.13889592 349.77926172 427.72682669 348.6742534 430 347 C431.10061536 345.28883537 431.10061536 345.28883537 431.875 343.375 C433.78114245 339.25010774 436.18905674 335.6712449 438.828125 331.98046875 C440.25462196 329.95322316 440.25462196 329.95322316 440 327 C440.66 327 441.32 327 442 327 C443.48537267 324.8334743 443.48537267 324.8334743 445 322 C445.70125 320.88625 446.4025 319.7725 447.125 318.625 C449.16386006 315.08423157 449.66938435 312.05004169 450 308 C450.66 308 451.32 308 452 308 C452.40992188 306.77023437 452.81984375 305.54046875 453.2421875 304.2734375 C454.32552083 301.0234375 455.40885417 297.7734375 456.4921875 294.5234375 C456.88011475 293.35615112 456.88011475 293.35615112 457.27587891 292.1652832 C457.88723096 290.33720452 458.51237956 288.51374833 459.140625 286.69140625 C459.90362302 284.30183517 460.44414232 282.02894038 460.875 279.5625 C461.92488241 274.01312153 463.44431783 268.62587568 465 263.19921875 C468.1883037 250.51696025 468.4060018 237.93111387 468.375 224.9375 C468.37345917 223.96434845 468.37191833 222.9911969 468.37033081 221.98855591 C468.25570198 191.52383628 462.50193786 165.25609896 451 137 C450.33242635 135.33369641 449.66552665 133.66712222 449 132 C448.34 132 447.68 132 447 132 C446.67 129.69 446.34 127.38 446 125 C445.34 125 444.68 125 444 125 C443.896875 124.29875 443.79375 123.5975 443.6875 122.875 C442.90640997 119.60862353 441.57941257 116.9528148 440 114 C439.34 114 438.68 114 438 114 C437.73445313 113.28199219 437.46890625 112.56398438 437.1953125 111.82421875 C432.77745704 101.38595242 424.96256159 92.5070679 417.5625 84.0625 C415 81 415 81 414 78 C412.30848482 76.50546296 412.30848482 76.50546296 410.25 75.125 C404.90727662 71.25580353 400.71905361 66.78926618 396.625 61.6484375 C394.6293275 59.62398127 392.44566368 58.44581882 390 57 C387.19135972 54.77245771 384.45983629 52.46615417 381.71875 50.15625 C379.22787312 48.18072696 376.72133881 46.6284837 374 45 C372.35782028 43.66671904 370.7330301 42.31177492 369.125 40.9375 C365.13649955 37.68870661 362.05231588 36.16591905 357 35 C355.58683261 34.04470717 354.17477426 33.08768967 352.77099609 32.11865234 C349.43130529 30.00913163 345.80147064 28.5123537 342.1875 26.9375 C341.05344727 26.42993164 341.05344727 26.42993164 339.89648438 25.91210938 C330.28339989 21.54110526 330.28339989 21.54110526 320 20 C320 19.34 320 18.68 320 18 C317.18831904 17.20532858 314.37571498 16.41420767 311.5625 15.625 C310.77939453 15.40328125 309.99628906 15.1815625 309.18945312 14.953125 C308.40634766 14.73398438 307.62324219 14.51484375 306.81640625 14.2890625 C306.10943604 14.09006348 305.40246582 13.89106445 304.67407227 13.68603516 C297.87476158 11.94166713 291.1581166 10.61285562 284.171875 9.90234375 C283.35555603 9.81887192 282.53923706 9.73540009 281.69818115 9.6493988 C272.55424971 8.77766686 263.43097048 8.56107925 254.25 8.5625 C252.93202927 8.56040024 252.93202927 8.56040024 251.58743286 8.55825806 C229.27638468 8.58719064 207.00761376 11.06011449 186 19 Z "/>
    <path style="fill:#DC2A1B" transform="translate(175.0,99.0)" d="M0 0 C5.15921743 -0.22320235 10.31560509 -0.38610225 15.47851562 -0.49438477 C17.23259439 -0.53953126 18.98633651 -0.60086921 20.73925781 -0.67895508 C35.31882651 -1.31194997 35.31882651 -1.31194997 39.48339844 1.93798828 C41.06584832 4.27193633 42.11134951 6.33143314 43 9 C43.495 10.485 43.495 10.485 44 12 C44.99 12.495 44.99 12.495 46 13 C46.71778488 14.57229069 47.42381271 16.15098667 48.0703125 17.75390625 C49.59556719 21.43887031 51.32269394 25.03231005 53.01171875 28.64453125 C54 31 54 31 54 33 C54.66 33 55.32 33 56 33 C60.02742069 38.40825064 62.78838167 44.45235773 65.04296875 50.7734375 C66.06940744 53.16147854 67.44014419 54.93483879 69 57 C69 57.66 69 58.32 69 59 C69.66 59 70.32 59 71 59 C74.36270299 63.93466535 77.41917977 69.25332301 79.625 74.8125 C80.76968318 77.46608374 81.79138721 79.18293992 83.5 81.4375 C85.67930156 84.34750855 86.75906023 87.12053976 87.93359375 90.5703125 C90.92791844 97.39254677 95.67353951 103.6568952 99.921875 109.76171875 C100.46328125 110.54160156 101.0046875 111.32148438 101.5625 112.125 C102.03816406 112.78757812 102.51382813 113.45015625 103.00390625 114.1328125 C104 116 104 116 104 120 C104.66 120 105.32 120 106 120 C107.72209646 123.44419293 107.37733795 127.22662047 107 131 C105.625 134.0625 105.625 134.0625 104 136 C103.34 136 102.68 136 102 136 C101.79375 136.804375 101.5875 137.60875 101.375 138.4375 C99.86538309 142.34878018 97.85928235 145.35735651 95.4375 148.75390625 C93.89769584 150.99586833 93.89769584 150.99586833 92.9453125 153.7265625 C92.63335937 154.47679687 92.32140625 155.22703125 92 156 C89.875 156.8125 89.875 156.8125 88 157 C88 155.68 88 154.36 88 153 C87.34 153 86.68 153 86 153 C85.67 151.02 85.34 149.04 85 147 C84.01 146.67 83.02 146.34 82 146 C80.91259766 144.25341797 80.91259766 144.25341797 79.9140625 141.9921875 C79.54023438 141.16976562 79.16640625 140.34734375 78.78125 139.5 C78.3996875 138.63375 78.018125 137.7675 77.625 136.875 C75.45979443 131.99208812 73.38757176 127.32615464 70.2109375 123.0078125 C68 120 68 120 68 118 C67.34 118 66.68 118 66 118 C57.9263658 103.31591449 57.9263658 103.31591449 55 96 C43.12 96 31.24 96 19 96 C19.495 99.465 19.495 99.465 20 103 C20.66 103 21.32 103 22 103 C22.41958984 103.89138672 22.41958984 103.89138672 22.84765625 104.80078125 C25.15859922 109.57871158 27.63147468 114.07187769 30.5625 118.5 C33.41419041 122.84867323 35.40981608 127.08554268 37.078125 132.00390625 C37.94705439 134.34228408 37.94705439 134.34228408 41 136 C41 137.32 41 138.64 41 140 C41.66 140 42.32 140 43 140 C43.0825 140.5775 43.165 141.155 43.25 141.75 C43.84949785 144.13035283 43.84949785 144.13035283 45.84375 145.76953125 C48.30360396 148.3140541 49.64548762 150.78689195 51.25 153.9375 C53.66982126 158.57032019 56.20382871 163.01564773 59 167.4375 C71.43949547 187.56952105 71.43949547 187.56952105 69.86328125 194.90234375 C68.47738617 198.26988066 66.54557988 201.14318852 64.375 204.0546875 C62.82134272 206.05372965 62.82134272 206.05372965 62 209 C61.34 209.33 60.68 209.66 60 210 C58.97821857 211.72425617 57.95869907 213.45082593 57 215.2109375 C56.08092727 216.85521605 55.04489184 218.43266224 54 220 C49.69766905 218.48603944 48.30723693 215.70661037 46.0625 211.875 C45.36510386 210.69370296 44.66718807 209.51271255 43.96875 208.33203125 C43.3190625 207.23246094 42.669375 206.13289062 42 205 C41.02595933 203.51745281 40.04780114 202.03758747 39.0625 200.5625 C37.08802228 197.44176509 36.27966816 194.72890882 36 191 C35.01 190.67 34.02 190.34 33 190 C30.22007425 186.29343233 29.06827448 182.29308204 27.84375 177.890625 C27.5653125 177.26671875 27.286875 176.6428125 27 176 C26.01 175.67 25.02 175.34 24 175 C23.078125 173.390625 23.078125 173.390625 22.25 171.25 C18.30684694 161.80442424 13.20242561 153.0067949 7.48046875 144.53515625 C5.86481625 141.76851121 4.91401283 139.06305763 4 136 C3.34 136 2.68 136 2 136 C1.505 134.783125 1.01 133.56625 0.5 132.3125 C-1.9308441 126.78144893 -5.13982558 121.7946152 -8.390625 116.72265625 C-10 114 -10 114 -10 112 C-10.66 112 -11.32 112 -12 112 C-12.84069415 110.39967863 -13.67231505 108.79458829 -14.5 107.1875 C-14.9640625 106.29417969 -15.428125 105.40085937 -15.90625 104.48046875 C-17 102 -17 102 -17 99 C-17.99 98.67 -18.98 98.34 -20 98 C-20.88671875 96.42578125 -20.88671875 96.42578125 -21.6875 94.3125 C-25.2969819 85.63586082 -30.1482624 77.28148347 -35.78515625 69.765625 C-39.39544954 64.51851064 -42.21527143 58.68442698 -44.9375 52.9375 C-46.96269344 48.7583932 -49.69555992 45.17068191 -52.51171875 41.4921875 C-54.21626711 38.63785193 -54.64326592 36.28195352 -55 33 C-55.66 33 -56.32 33 -57 33 C-59.44564979 26.50435417 -60.76702935 18.61342638 -58.20703125 11.9296875 C-57.1875 10.375 -57.1875 10.375 -55 8 C-54.566875 7.46375 -54.13375 6.9275 -53.6875 6.375 C-47.98682848 1.73000839 -44.2223164 0.49317078 -37 1 C-36.71125 1.639375 -36.4225 2.27875 -36.125 2.9375 C-35.17176549 5.15206079 -35.17176549 5.15206079 -33 6 C-32.1484375 8.06640625 -32.1484375 8.06640625 -31.375 10.5625 C-30.98441406 11.80193359 -30.98441406 11.80193359 -30.5859375 13.06640625 C-30.39257812 13.70449219 -30.19921875 14.34257813 -30 15 C-29.34 15 -28.68 15 -28 15 C-11 44.65508685 -11 44.65508685 -11 48 C-10.34 48 -9.68 48 -9 48 C-8.63132813 48.99467285 -8.26265625 49.9893457 -7.8828125 51.01416016 C-4.93112604 58.15111521 -4.93112604 58.15111521 0.87158203 62.80407715 C6.19421521 63.94827377 11.59639336 63.61477627 17 63.375 C18.64966643 63.35296556 20.29943058 63.33728141 21.94921875 63.328125 C25.97100218 63.29206514 29.98172974 63.1697592 34 63 C29.97943171 53.76197803 25.44606755 44.97345438 19.8828125 36.55859375 C19 35 19 35 19 33 C17.515 32.505 17.515 32.505 16 32 C16 30.68 16 29.36 16 28 C15.34 28 14.68 28 14 28 C11.82570089 24.82914714 10.34555905 21.58815747 9 18 C8.443125 16.6078125 8.443125 16.6078125 7.875 15.1875 C7.58625 14.465625 7.2975 13.74375 7 13 C6.34 13 5.68 13 5 13 C2 6.375 2 6.375 2 3 C1.34 3 0.68 3 0 3 C0 2.01 0 1.02 0 0 Z "/>
    <path style="fill:#DC2A1B" transform="translate(229.0,99.0)" d="M0 0 C5.05358014 -0.14845558 10.10588883 -0.25726186 15.16113281 -0.32958984 C16.88010771 -0.35974161 18.59892902 -0.4006713 20.31738281 -0.45263672 C22.79009864 -0.52553181 25.26077994 -0.55946901 27.734375 -0.5859375 C28.88459137 -0.63238907 28.88459137 -0.63238907 30.05804443 -0.67977905 C32.24121094 -0.68115234 32.24121094 -0.68115234 36 0 C39.48500732 4.1063438 40.77320153 7.8883397 42 13 C42.66 13 43.32 13 44 13 C44.81498562 14.6029053 45.62689927 16.20737278 46.4375 17.8125 C46.88996094 18.70582031 47.34242188 19.59914063 47.80859375 20.51953125 C49 23 49 23 50 26 C50.66 26 51.32 26 52 26 C52.92682306 27.85364613 53.85317159 29.70753079 54.77734375 31.5625 C55.63632519 33.27497418 56.50432758 34.98293874 57.37890625 36.6875 C57.83136719 37.574375 58.28382813 38.46125 58.75 39.375 C59.17796875 40.20773438 59.6059375 41.04046875 60.046875 41.8984375 C61 44 61 44 61 46 C61.99 46.33 62.98 46.66 64 47 C66.21751399 50.69585666 67 52.63008373 67 57 C67.66 57 68.32 57 69 57 C70.40252962 59.5635981 71.80249665 62.12854397 73.19921875 64.6953125 C74.44676424 66.98473437 75.69927213 69.27091091 76.95703125 71.5546875 C77.58996094 72.71226562 78.22289062 73.86984375 78.875 75.0625 C79.76832031 76.68865234 79.76832031 76.68865234 80.6796875 78.34765625 C82 81 82 81 82 83 C83.485 83.495 83.485 83.495 85 84 C86.03485877 86.31808364 87.0355414 88.65175298 88 91 C88.66 91.33 89.32 91.66 90 92 C90.27070313 91.278125 90.54140625 90.55625 90.8203125 89.8125 C93.14753614 84.26415224 96.33743282 78.99508062 100.1875 74.375 C102.63321558 71.17026924 103.71032384 67.78508505 105 64 C105.66066719 62.33094605 106.32438252 60.6630584 107 59 C107.66 59 108.32 59 109 59 C109.99 56.03 109.99 56.03 111 53 C111.66 53 112.32 53 113 53 C113.0825 52.29875 113.165 51.5975 113.25 50.875 C114.17876749 47.31472462 115.80272914 44.92969448 118 42 C118.66 41.67 119.32 41.34 120 41 C120.76942019 39.29713593 121.46458252 37.56052809 122.125 35.8125 C124.32390994 30.34441422 126.99081096 25.31158247 129.96923828 20.24487305 C133.26012945 14.62782414 136.16562458 8.86200372 139 3 C139.66 3 140.32 3 141 3 C141 2.34 141 1.68 141 1 C153.83847067 1.65204142 153.83847067 1.65204142 158.58984375 6.68359375 C163.23612302 11.94208864 164.55773974 15.15432734 164.56640625 22.26953125 C163.42958261 29.75688694 159.51825206 36.37186442 156 43 C155.34 43 154.68 43 154 43 C153.75121094 43.81855469 153.50242187 44.63710937 153.24609375 45.48046875 C151.79192158 49.58770738 149.99596536 53.4136405 148.0625 57.3125 C147.71509766 58.04017578 147.36769531 58.76785156 147.00976562 59.51757812 C146.08510696 61.38605034 145.04928214 63.19855917 144 65 C143.01 65.33 142.02 65.66 141 66 C140.28693491 67.9839311 139.62800616 69.98752572 139 72 C137.89606671 73.99437004 136.72818926 75.95465323 135.5 77.875 C134.8915625 78.84179688 134.283125 79.80859375 133.65625 80.8046875 C133.1096875 81.52914062 132.563125 82.25359375 132 83 C131.34 83 130.68 83 130 83 C129.87625 83.928125 129.7525 84.85625 129.625 85.8125 C129 89 129 89 127 92 C126.60986284 93.9896995 126.26797351 95.99019869 126 98 C125.34 98 124.68 98 124 98 C123.89558594 98.55171875 123.79117188 99.1034375 123.68359375 99.671875 C122.85439616 102.49588509 121.5720035 104.72554916 120.0625 107.25 C119.53785156 108.14203125 119.01320313 109.0340625 118.47265625 109.953125 C117.98667969 110.62859375 117.50070312 111.3040625 117 112 C116.34 112 115.68 112 115 112 C114.79375 112.78375 114.5875 113.5675 114.375 114.375 C112.91581568 118.22194048 111.06524647 121.39727292 108.91015625 124.88671875 C106.09884899 129.46874715 103.40200116 134.116927 100.69140625 138.7590332 C98.63770389 142.26267231 96.54820265 145.73161591 94.37109375 149.16015625 C92.40153802 152.29087083 90.70737481 155.46516866 89.125 158.8125 C86.5972382 163.98559392 83.67248192 168.73392501 80.5234375 173.546875 C78.64789032 176.56698687 77.37017318 179.72349891 76 183 C70.77184466 192.74271845 70.77184466 192.74271845 67 194 C66.36856864 195.76832815 66.36856864 195.76832815 66 198 C65.34490497 200.00382009 64.68025637 202.00458132 64 204 C63.34 204 62.68 204 62 204 C61.64808594 204.96486328 61.64808594 204.96486328 61.2890625 205.94921875 C59.56092316 210.03914852 57.47275083 213.90216134 55.375 217.8125 C54.74464844 218.99489258 54.74464844 218.99489258 54.1015625 220.20117188 C53.0699991 222.13535326 52.03608828 224.06823983 51 226 C50.34 226 49.68 226 49 226 C48.79375 226.804375 48.5875 227.60875 48.375 228.4375 C45.49957678 235.88746015 41.10424974 242.59184115 33.71484375 246.078125 C27.92664748 248.04361323 20.74667603 248.00170992 15 245.8125 C11.61382206 243.76668416 9.83917421 242.52508391 8 239 C7.55521766 232.98431888 9.14959569 228.55047782 13 224 C13.66 224 14.32 224 15 224 C15.144375 223.38125 15.28875 222.7625 15.4375 222.125 C16 220 16 220 17 218 C17.66 218 18.32 218 19 218 C19.2475 217.01 19.495 216.02 19.75 215 C22.1564902 206.70175793 27.10911646 196.48977933 33.4765625 190.64453125 C35.92920995 187.99692977 37.26631836 184.72601626 38.8125 181.5 C39.51812408 180.06050728 40.22516464 178.62170808 40.93359375 177.18359375 C41.28147949 176.4757373 41.62936523 175.76788086 41.98779297 175.03857422 C43.40340846 172.18753965 44.87383692 169.36934301 46.375 166.5625 C46.83648437 165.69753906 47.29796875 164.83257812 47.7734375 163.94140625 C49 162 49 162 51 161 C52.35908397 158.47598692 53.636751 155.95737059 54.875 153.375 C57.41353215 148.13384808 60.05741648 143.02746333 63 138 C63.66 138 64.32 138 65 138 C67.277275 132.14414999 68.71120105 127.29920932 68 121 C66.85832154 118.48929584 65.49418134 116.33465835 64 114 C64 113.34 64 112.68 64 112 C63.34 112 62.68 112 62 112 C57.14437885 103.5362493 57.14437885 103.5362493 55.375 99.25 C53.83953466 95.6207183 52.30858578 92.30858578 49.5 89.5 C47.51895576 87.51895576 46.27541507 85.4900961 45 83 C45 81.68 45 80.36 45 79 C44.34 79 43.68 79 43 79 C42.16151196 77.54462432 41.32936066 76.08559627 40.5 74.625 C40.0359375 73.81289062 39.571875 73.00078125 39.09375 72.1640625 C38 70 38 70 38 68 C37.34 68 36.68 68 36 68 C35.78593506 67.48590576 35.57187012 66.97181152 35.35131836 66.44213867 C32.5088534 59.8175207 29.11611937 53.57905392 25.5625 47.3125 C24.72235352 45.80333008 24.72235352 45.80333008 23.86523438 44.26367188 C20.93222658 39.07187162 17.97698036 34.44191512 14 30 C12.045038 26.83482343 12 25.94733824 12 22 C11.34 22 10.68 22 10 22 C9.5875 20.80375 9.175 19.6075 8.75 18.375 C7.30537835 14.51131852 5.3971602 11.37100653 3 8 C0 3.39285714 0 3.39285714 0 0 Z "/>
</svg>